<svg width="916" height="544" xmlns="http://www.w3.org/2000/svg" xmlns:xlink="http://www.w3.org/1999/xlink" xml:space="preserve" overflow="hidden"><defs><clipPath id="clip0"><rect x="308" y="165" width="916" height="544"/></clipPath></defs><g clip-path="url(#clip0)" transform="translate(-308 -165)"><path d="M27.7293 0.346616 45.612 0.346616 45.612-0.346616 27.7293-0.346616ZM74.1349 0.346616 92.0175 0.346616 92.0175 2.42631 96.8701 0 92.0175-2.42631 92.0175-0.346616 74.1349-0.346616Z" fill="#A5ABB6" transform="matrix(-0.830717 -0.556695 0.555903 -0.831901 724.832 274.836)"/><text font-family="Arial,Arial_MSFontService,sans-serif" font-weight="400" font-size="8" transform="matrix(0.575879 0.385919 -0.38537 0.5767 664.724 237)">belong<tspan font-size="8" x="22.4086" y="0.610528">_</tspan><tspan font-size="8" x="25.9729" y="-0.0406275">to</tspan></text><path d="M27.7263 0.346578 51.4052 0.346578 51.4052-0.346578 27.7263-0.346578ZM79.9251 0.346578 103.603 0.346578 103.603 2.42605 108.455 0 103.603-2.42605 103.603-0.346578 79.9251-0.346578Z" fill="#A5ABB6" transform="matrix(0.875176 -0.483805 0.483116 0.876424 502.142 271.358)"/><text font-family="Arial,Arial_MSFontService,sans-serif" font-weight="400" font-size="8" transform="matrix(0.606634 -0.335353 0.334875 0.607499 550.909 247)">belong<tspan font-size="8" x="22.4334" y="-0.78504">_</tspan><tspan font-size="8" x="26.1956" y="-0.35432">to</tspan></text><path d="M22.5329 0.34666 37.6194 0.34666 37.6194-0.34666 22.5329-0.34666ZM66.1457 0.34666 81.2321 0.34666 81.2321 2.42662 86.0854 0 81.2321-2.42662 81.2321-0.34666 66.1457-0.34666Z" fill="#A5ABB6" transform="matrix(-0.631156 -0.776029 0.774924 -0.632056 796.669 363.162)"/><text font-family="Arial,Arial_MSFontService,sans-serif" font-weight="400" font-size="8" transform="matrix(0.437593 0.538036 -0.53727 0.438217 755.31 316)">belong<tspan font-size="8" x="21.065" y="-0.761573">_</tspan><tspan font-size="8" x="26.0124" y="0.0100479">to</tspan></text><path d="M27.722 0.346525 42.6732 0.346525 42.6732-0.346525 27.722-0.346525ZM71.1888 0.346525 86.1399 0.346525 86.1399 2.42568 90.9913 0 86.1399-2.42568 86.1399-0.346525 71.1888-0.346525Z" fill="#A5ABB6" transform="matrix(-0.354372 -0.936247 0.934914 -0.354877 836.895 469.44)"/><text font-family="Arial,Arial_MSFontService,sans-serif" font-weight="400" font-size="8" transform="matrix(0.245597 0.648866 -0.647942 0.245948 810.847 406)">belong<tspan font-size="8" x="22.9769" y="0.37029">_</tspan><tspan font-size="8" x="26.1745" y="0.0661793">to</tspan></text><path d="M27.7184 0.346479 50.7283 0.346479 50.7283-0.346479 27.7184-0.346479ZM79.2398 0.346479 102.25 0.346479 102.25 2.42536 107.1 0 102.25-2.42536 102.25-0.346479 79.2398-0.346479Z" fill="#A5ABB6" transform="matrix(0.180913 -0.984854 0.983452 0.18117 773.219 490.82)"/><text font-family="Arial,Arial_MSFontService,sans-serif" font-weight="400" font-size="8" transform="matrix(0.125365 -0.682463 0.681492 0.125544 785.014 438)">belong<tspan font-size="8" x="21.9799" y="0.00374079">_</tspan><tspan font-size="8" x="26.3628" y="-0.0667725">to</tspan></text><path d="M27.7345 0.346681 97.0297 0.346681 97.0297-0.346681 27.7345-0.346681ZM125.558 0.346681 194.853 0.346681 194.853 2.42677 199.707 0 194.853-2.42677 194.853-0.346681 125.558-0.346681Z" fill="#A5ABB6" transform="matrix(0.663685 -0.748238 0.747173 0.664631 649.171 529.451)"/><text font-family="Arial,Arial_MSFontService,sans-serif" font-weight="400" font-size="8" transform="matrix(0.460174 -0.518799 0.518061 0.46083 717.227 456)">belong<tspan font-size="8" x="22.6318" y="-0.561197">_</tspan><tspan font-size="8" x="26.5508" y="-0.489226">to</tspan></text><path d="M27.7263 0.346579 75.5286 0.346579 75.5286-0.346579 27.7263-0.346579ZM104.049 0.346579 151.851 0.346579 151.851 2.42605 156.703 0 151.851-2.42605 151.851-0.346579 104.049-0.346579Z" fill="#A5ABB6" transform="matrix(0.484998 -0.875378 0.874132 0.48569 709.743 520.057)"/><text font-family="Arial,Arial_MSFontService,sans-serif" font-weight="400" font-size="8" transform="matrix(0.336181 -0.606776 0.605912 0.33666 749.729 452)">belong<tspan font-size="8" x="21.5601" y="0.244081">_</tspan><tspan font-size="8" x="26.2821" y="-0.156464">to</tspan></text><path d="M27.7341 0.346677 55.1224 0.346677 55.1224-0.346677 27.7341-0.346677ZM83.6503 0.346677 111.038 0.346677 111.038 2.42674 115.892 0 111.038-2.42674 111.038-0.346677 83.6503-0.346677Z" fill="#A5ABB6" transform="matrix(-0.752994 -0.658028 0.657091 -0.754067 900.903 454.25)"/><text font-family="Arial,Arial_MSFontService,sans-serif" font-weight="400" font-size="8" transform="matrix(0.522091 0.456246 -0.455596 0.522835 838.935 403)">belong<tspan font-size="8" x="21.9646" y="-0.0406418">_</tspan><tspan font-size="8" x="26.1304" y="0.149377">to</tspan></text><path d="M27.7286 0.346607 68.1237 0.346607 68.1237-0.346607 27.7286-0.346607ZM96.6459 0.346607 137.041 0.346607 137.041 2.42625 141.893 0 137.041-2.42625 137.041-0.346607 96.6459-0.346607Z" fill="#A5ABB6" transform="matrix(-0.841132 0.54083 -0.54006 -0.842331 934.97 274.237)"/><text font-family="Arial,Arial_MSFontService,sans-serif" font-weight="400" font-size="8" transform="matrix(0.583085 -0.374911 0.374378 0.583916 857.467 327)">belong<tspan font-size="8" x="22.5855" y="-0.911847">_</tspan><tspan font-size="8" x="26.1965" y="-0.305948">to</tspan></text><path d="M27.7226 0.346533 82.3022 0.346533 82.3022-0.346533 27.7226-0.346533ZM110.818 0.346533 165.397 0.346533 165.397 2.42573 170.249 0 165.397-2.42573 165.397-0.346533 110.818-0.346533Z" fill="#A5ABB6" transform="matrix(-0.926939 -0.375211 0.374677 -0.928261 975.359 435.493)"/><text font-family="Arial,Arial_MSFontService,sans-serif" font-weight="400" font-size="8" transform="matrix(0.642429 0.260046 -0.259676 0.643345 874.796 397)">belong<tspan font-size="8" x="22.1506" y="0.372769">_</tspan><tspan font-size="8" x="26.129" y="0.319056">to</tspan></text><path d="M27.7264 0.34658 139.694 0.34658 139.694-0.34658 27.7264-0.34658ZM168.214 0.34658 280.181 0.34658 280.181 2.42606 285.033 0 280.181-2.42606 280.181-0.34658 168.214-0.34658Z" fill="#A5ABB6" transform="matrix(0.873986 -0.485952 0.48526 0.875232 527.865 512.621)"/><text font-family="Arial,Arial_MSFontService,sans-serif" font-weight="400" font-size="8" transform="matrix(0.605812 -0.336842 0.336362 0.606675 653.735 445)">belong<tspan font-size="8" x="21.7128" y="0.517204">_</tspan><tspan font-size="8" x="26.1694" y="-0.305039">to</tspan></text><path d="M27.7186 0.346482 118.882 0.346482 118.882-0.346482 27.7186-0.346482ZM147.394 0.346482 238.557 0.346482 238.557 2.42538 243.408 0 238.557-2.42538 238.557-0.346482 147.394-0.346482Z" fill="#A5ABB6" transform="matrix(-0.980365 -0.197192 0.196911 -0.981763 1057.38 415.601)"/><text font-family="Arial,Arial_MSFontService,sans-serif" font-weight="400" font-size="8" transform="matrix(0.679358 0.136647 -0.136452 0.680327 915.574 389)">belong<tspan font-size="8" x="21.9982" y="-0.00880289">_</tspan><tspan font-size="8" x="26.1268" y="0.631822">to</tspan></text><path d="M27.7321 0.346651 120.261 0.346651 120.261-0.346651 27.7321-0.346651ZM148.787 0.346651 241.315 0.346651 241.315 2.42656 246.169 0 241.315-2.42656 241.315-0.346651 148.787-0.346651Z" fill="#A5ABB6" transform="matrix(0.786956 -0.617009 0.61613 0.788079 585.213 528.953)"/><text font-family="Arial,Arial_MSFontService,sans-serif" font-weight="400" font-size="8" transform="matrix(0.545598 -0.427773 0.427164 0.546376 683.629 454)">belong<tspan font-size="8" x="21.6349" y="0.466382">_</tspan><tspan font-size="8" x="25.8915" y="0.138541">to</tspan></text><path d="M27.7218 0.346522 178.639 0.346522 178.639-0.346522 27.7218-0.346522ZM207.154 0.346522 358.072 0.346522 358.072 2.42566 362.923 0 358.072-2.42566 358.072-0.346522 207.154-0.346522Z" fill="#A5ABB6" transform="matrix(0.938211 -0.346064 0.345571 0.939549 435.038 496.552)"/><text font-family="Arial,Arial_MSFontService,sans-serif" font-weight="400" font-size="8" transform="matrix(0.650222 -0.239838 0.239496 0.651149 606.331 436)">belong<tspan font-size="8" x="22.3604" y="-0.978483">_</tspan><tspan font-size="8" x="26.3806" y="-1.03345">to</tspan></text><path d="M27.7179 0.346474 135.7 0.346474 135.7-0.346474 27.7179-0.346474ZM164.211 0.346474 272.193 0.346474 272.193 2.42532 277.044 0 272.193-2.42532 272.193-0.346474 164.211-0.346474Z" fill="#A5ABB6" transform="matrix(-0.988749 0.149585 -0.149372 -0.990159 1092.86 318.352)"/><text font-family="Arial,Arial_MSFontService,sans-serif" font-weight="400" font-size="8" transform="matrix(0.685152 -0.103655 0.103507 0.686129 933.943 344)">belong<tspan font-size="8" x="21.9397" y="0.399566">_</tspan><tspan font-size="8" x="25.8504" y="0.990369">to</tspan></text><path d="M27.7335 0.346669 46.506 0.346669 46.506-0.346669 27.7335-0.346669ZM75.033 0.346669 93.8058 0.346669 93.8058 2.42668 98.6592 0 93.8058-2.42668 93.8058-0.346669 75.033-0.346669Z" fill="#A5ABB6" transform="matrix(0.763888 -0.645348 0.644429 0.764978 338.489 578.119)"/><text font-family="Arial,Arial_MSFontService,sans-serif" font-weight="400" font-size="8" transform="matrix(0.529633 -0.447444 0.446807 0.530388 377.776 548)">belong<tspan font-size="8" x="22.1452" y="-0.172083">_</tspan><tspan font-size="8" x="26.3405" y="-0.403643">to</tspan></text><path d="M22.5207 0.346473 55.955 0.346473 55.955-0.346473 22.5207-0.346473ZM84.4659 0.346473 117.9 0.346473 117.9 2.42531 122.751 0 117.9-2.42531 117.9-0.346473 84.4659-0.346473Z" fill="#A5ABB6" transform="matrix(0.989982 -0.141194 0.140993 0.991394 353.181 292.603)"/><text font-family="Arial,Arial_MSFontService,sans-serif" font-weight="400" font-size="8" transform="matrix(0.686004 -0.0978398 0.0977005 0.686982 412.005 286)">belong<tspan font-size="8" x="21.969" y="0.217542">_</tspan><tspan font-size="8" x="25.8895" y="0.775896">to</tspan></text><path d="M27.7172 0.346465 40.2682 0.346465 40.2682-0.346465 27.7172-0.346465ZM68.7785 0.346465 81.3298 0.346465 81.3298 2.42525 86.1803 0 81.3298-2.42525 81.3298-0.346465 68.7785-0.346465Z" fill="#A5ABB6" transform="matrix(0.0568485 -0.999802 0.998378 0.0569296 347.001 401.282)"/><text font-family="Arial,Arial_MSFontService,sans-serif" font-weight="400" font-size="8" transform="matrix(0.039392 -0.692792 0.691806 0.0394482 351.546 358)">belong<tspan font-size="8" x="21.6526" y="0.0197548">_</tspan><tspan font-size="8" x="25.9819" y="0.000999331">to</tspan></text><path d="M27.7194 0.346493 39.9465 0.346493 39.9465-0.346493 27.7194-0.346493ZM68.4591 0.346493 80.6858 0.346493 80.6858 2.42545 85.5367 0 80.6858-2.42545 80.6858-0.346493 68.4591-0.346493Z" fill="#A5ABB6" transform="matrix(-0.969239 0.24612 -0.24577 -0.970621 1044.74 246.362)"/><text font-family="Arial,Arial_MSFontService,sans-serif" font-weight="400" font-size="8" transform="matrix(0.671669 -0.170558 0.170315 0.672627 981.972 264)">belong<tspan font-size="8" x="21.7335" y="1.05085">_</tspan><tspan font-size="8" x="25.8461" y="0.606969">to</tspan></text><path d="M27.7354 0.346692 48.7866 0.346692 48.7866-0.346692 27.7354-0.346692ZM78.2366 0.346692 99.2877 0.346692 99.2877 2.42684 104.141 0 99.2877-2.42684 99.2877-0.346692 78.2366-0.346692Z" fill="#A5ABB6" transform="matrix(-0.680383 -0.733 0.731957 -0.681353 934.97 274.237)"/><text font-family="Arial,Arial_MSFontService,sans-serif" font-weight="400" font-size="8" transform="matrix(0.471766 0.508251 -0.507527 0.472439 882.215 220)">located<tspan font-size="8" x="24.8465" y="0.786872">_</tspan><tspan font-size="8" x="28.8117" y="0.75447">in</tspan></text><path d="M27.7314 0.346643 214.467 0.346643 214.467-0.346643 27.7314-0.346643ZM243.913 0.346643 430.649 0.346643 430.649 2.4265 435.502 0 430.649-2.4265 430.649-0.346643 243.913-0.346643Z" fill="#A5ABB6" transform="matrix(-0.797499 0.603321 -0.602462 -0.798636 1057.38 415.601)"/><text font-family="Arial,Arial_MSFontService,sans-serif" font-weight="400" font-size="8" transform="matrix(0.552894 -0.418274 0.417678 0.553683 866.452 563)">located<tspan font-size="8" x="23.9664" y="0.0442991">_</tspan><tspan font-size="8" x="28.2505" y="-0.331573">in</tspan></text><path d="M27.7173 0.346466 51.5576 0.346466 51.5576-0.346466 27.7173-0.346466ZM80.0682 0.346466 103.909 0.346466 103.909 2.42526 108.759 0 103.909-2.42526 103.909-0.346466 80.0682-0.346466Z" fill="#A5ABB6" transform="matrix(-0.997497 0.0707146 -0.0706139 -0.998919 1193.51 405.95)"/><text font-family="Arial,Arial_MSFontService,sans-serif" font-weight="400" font-size="8" transform="matrix(0.691197 -0.0490003 0.0489306 0.692182 1116.95 413)">belong<tspan font-size="8" x="21.992" y="0.112133">_</tspan><tspan font-size="8" x="25.9721" y="0.393884">to</tspan></text><path d="M27.7286 0.346607 118.266 0.346607 118.266-0.346607 27.7286-0.346607ZM147.709 0.346607 238.247 0.346607 238.247 2.42625 243.1 0 238.247-2.42625 238.247-0.346607 147.709-0.346607Z" fill="#A5ABB6" transform="matrix(-0.540082 0.842318 -0.841119 -0.540852 836.895 469.44)"/><text font-family="Arial,Arial_MSFontService,sans-serif" font-weight="400" font-size="8" transform="matrix(0.374392 -0.583907 0.583075 0.374926 760.455 593)">located<tspan font-size="8" x="25.196" y="-0.767922">_</tspan><tspan font-size="8" x="28.789" y="-0.506604">in</tspan></text><path d="M27.7222 0.346528 94.1544 0.346528 94.1544-0.346528 27.7222-0.346528ZM123.59 0.346528 190.022 0.346528 190.022 2.4257 194.873 0 190.022-2.4257 190.022-0.346528 123.59-0.346528Z" fill="#A5ABB6" transform="matrix(-0.362757 0.933011 -0.931683 -0.363274 773.219 490.82)"/><text font-family="Arial,Arial_MSFontService,sans-serif" font-weight="400" font-size="8" transform="matrix(0.251411 -0.646629 0.645708 0.251769 731.388 604)">located<tspan font-size="8" x="23.3029" y="0.271351">_</tspan><tspan font-size="8" x="27.8582" y="0.0551977">in</tspan></text><path d="M27.7202 0.346503 71.0359 0.346503 71.0359-0.346503 27.7202-0.346503ZM100.47 0.346503 143.786 0.346503 143.786 2.42552 148.637 0 143.786-2.42552 143.786-0.346503 100.47-0.346503Z" fill="#A5ABB6" transform="matrix(0.283625 0.960183 -0.958816 0.28403 649.171 529.451)"/><text font-family="Arial,Arial_MSFontService,sans-serif" font-weight="400" font-size="8" transform="matrix(0.196554 0.665412 -0.664465 0.196834 668.158 601)">located<tspan font-size="8" x="24.0416" y="0.012238">_</tspan><tspan font-size="8" x="28.5092" y="0.150579">in</tspan></text><path d="M27.7173 0.346466 72.5812 0.346466 72.5812-0.346466 27.7173-0.346466ZM102.012 0.346466 146.876 0.346466 146.876 2.42526 151.727 0 146.876-2.42526 146.876-0.346466 102.012-0.346466Z" fill="#A5ABB6" transform="matrix(-0.0798616 0.998218 -0.996797 -0.0799754 709.743 520.057)"/><text font-family="Arial,Arial_MSFontService,sans-serif" font-weight="400" font-size="8" transform="matrix(0.0553387 -0.691698 0.690713 0.0554176 703.902 619)">located<tspan font-size="8" x="23.137" y="0.0691352">_</tspan><tspan font-size="8" x="27.472" y="0.0423238">in</tspan></text><path d="M27.7341 0.346677 143.665 0.346677 143.665-0.346677 27.7341-0.346677ZM173.113 0.346677 289.044 0.346677 289.044 2.42674 293.897 0 289.044-2.42674 289.044-0.346677 173.113-0.346677Z" fill="#A5ABB6" transform="matrix(-0.657584 0.753636 -0.752563 -0.658522 900.903 454.25)"/><text font-family="Arial,Arial_MSFontService,sans-serif" font-weight="400" font-size="8" transform="matrix(0.455939 -0.522536 0.521792 0.456589 790.563 584)">located<tspan font-size="8" x="24.4983" y="-0.435316">_</tspan><tspan font-size="8" x="28.4004" y="-0.349865">in</tspan></text><path d="M27.7349 0.346686 176.512 0.346686 176.512-0.346686 27.7349-0.346686ZM205.961 0.346686 354.738 0.346686 354.738 2.4268 359.592 0 354.738-2.4268 354.738-0.346686 205.961-0.346686Z" fill="#A5ABB6" transform="matrix(-0.740508 0.672048 -0.671091 -0.741563 975.359 435.493)"/><text font-family="Arial,Arial_MSFontService,sans-serif" font-weight="400" font-size="8" transform="matrix(0.513447 -0.465979 0.465316 0.514179 826.414 573)">located<tspan font-size="8" x="23.8224" y="0.195971">_</tspan><tspan font-size="8" x="27.9541" y="0.0506411">in</tspan></text><path d="M27.7359 0.346699 109.892 0.346699 109.892-0.346699 27.7359-0.346699ZM139.342 0.346699 221.499 0.346699 221.499 2.42689 226.353 0 221.499-2.42689 221.499-0.346699 139.342-0.346699Z" fill="#A5ABB6" transform="matrix(0.690952 0.722989 -0.721959 0.691937 527.865 512.621)"/><text font-family="Arial,Arial_MSFontService,sans-serif" font-weight="400" font-size="8" transform="matrix(0.479104 0.501319 -0.500605 0.479788 604.324 596)">located<tspan font-size="8" x="23.9671" y="-0.0315723">_</tspan><tspan font-size="8" x="27.9615" y="-0.0367918">in</tspan></text><path d="M27.7299 0.346624 85.3167 0.346624 85.3167-0.346624 27.7299-0.346624ZM114.761 0.346624 172.348 0.346624 172.348 2.42637 177.2 0 172.348-2.42637 172.348-0.346624 114.761-0.346624Z" fill="#A5ABB6" transform="matrix(0.57075 0.821729 -0.820559 0.571564 585.213 528.953)"/><text font-family="Arial,Arial_MSFontService,sans-serif" font-weight="400" font-size="8" transform="matrix(0.395671 0.569662 -0.568851 0.396235 633.877 603)">located<tspan font-size="8" x="23.2051" y="-0.552869">_</tspan><tspan font-size="8" x="28.0585" y="0.0407038">in</tspan></text><path d="M27.7309 0.346636 150.215 0.346636 150.215-0.346636 27.7309-0.346636ZM179.66 0.346636 302.144 0.346636 302.144 2.42646 306.996 0 302.144-2.42646 302.144-0.346636 179.66-0.346636Z" fill="#A5ABB6" transform="matrix(0.805368 0.592775 -0.591931 0.806517 435.038 496.552)"/><text font-family="Arial,Arial_MSFontService,sans-serif" font-weight="400" font-size="8" transform="matrix(0.55834 0.410955 -0.41037 0.559136 557.151 589)">located<tspan font-size="8" x="24.117" y="0.159193">_</tspan><tspan font-size="8" x="28.421" y="0.572755">in</tspan></text><path d="M27.717 0C27.717 15.3077 15.3077 27.717-4.92354e-15 27.717-15.3077 27.717-27.717 15.3077-27.717 2.46177e-15-27.717-15.3077-15.3077-27.717 0-27.717 15.3077-27.717 27.717-15.3077 27.717 0Z" stroke="#D7A013" stroke-width="1.38585" fill="#FFC454" transform="matrix(1 0 0 1.00143 621.325 205.472)"/><text fill="#2A2C34" font-family="Arial,Arial_MSFontService,sans-serif" font-weight="400" font-size="10" transform="matrix(0.692926 0 0 0.693914 605.042 209)">cloudflare</text><path d="M27.717 0C27.717 15.3077 15.3077 27.717-4.92354e-15 27.717-15.3077 27.717-27.717 15.3077-27.717 2.46177e-15-27.717-15.3077-15.3077-27.717 0-27.717 15.3077-27.717 27.717-15.3077 27.717 0Z" stroke="#D7A013" stroke-width="1.38585" fill="#FFC454" transform="matrix(1 0 0 1.00143 724.832 274.836)"/><text fill="#2A2C34" font-family="Arial,Arial_MSFontService,sans-serif" font-weight="400" font-size="10" transform="matrix(0.692926 0 0 0.693914 697.808 278)">cloudflarenet_<tspan font-size="10" x="68.0001" y="0">us</tspan></text><path d="M27.717 0C27.717 15.3077 15.3077 27.717-4.92354e-15 27.717-15.3077 27.717-27.717 15.3077-27.717 2.46177e-15-27.717-15.3077-15.3077-27.717 0-27.717 15.3077-27.717 27.717-15.3077 27.717 0Z" stroke="#D7A013" stroke-width="1.38585" fill="#FFC454" transform="matrix(1 0 0 1.00143 502.142 271.358)"/><text fill="#2A2C34" font-family="Arial,Arial_MSFontService,sans-serif" font-weight="400" font-size="10" transform="matrix(0.692926 0 0 0.693914 473.732 275)">cloudflarenet<tspan font-size="10" x="62" y="0">_</tspan><tspan font-size="10" x="68" y="0">s</tspan><tspan font-size="10" x="72" y="0">…</tspan></text><path d="M22.5201 0C22.5201 12.4375 12.4375 22.5201 0 22.5201-12.4375 22.5201-22.5201 12.4375-22.5201 0-22.5201-12.4375-12.4375-22.5201-2.46177e-15-22.5201 12.4375-22.5201 22.5201-12.4375 22.5201 0Z" stroke="#F36924" stroke-width="1.38585" fill="#F79767" transform="matrix(1 0 0 1.00143 796.669 363.162)"/><text fill="#FFFFFF" font-family="Arial,Arial_MSFontService,sans-serif" font-weight="400" font-size="10" transform="matrix(0.692926 0 0 0.693914 781.425 367)">AS<tspan font-size="10" x="14" y="0">13335</tspan></text><path d="M27.717 0C27.717 15.3077 15.3077 27.717-4.92354e-15 27.717-15.3077 27.717-27.717 15.3077-27.717 2.46177e-15-27.717-15.3077-15.3077-27.717 0-27.717 15.3077-27.717 27.717-15.3077 27.717 0Z" stroke="#2870C2" stroke-width="1.38585" fill="#4C8EDA" transform="matrix(1 0 0 1.00143 934.97 274.237)"/><text fill="#FFFFFF" font-family="Arial,Arial_MSFontService,sans-serif" font-weight="400" font-size="10" transform="matrix(0.692926 0 0 0.693914 906.56 278)">197<tspan font-size="10" x="18" y="0">.</tspan><tspan font-size="10" x="20.9999" y="0">234</tspan><tspan font-size="10" x="39" y="0">.</tspan><tspan font-size="10" x="41.9999" y="0">240</tspan><tspan font-size="10" x="60" y="0">.</tspan><tspan font-size="10" x="62.9999" y="0">0</tspan><tspan font-size="10" x="69" y="0">/</tspan><tspan font-size="10" x="72" y="0">…</tspan></text><path d="M27.717 0C27.717 15.3077 15.3077 27.717-4.92354e-15 27.717-15.3077 27.717-27.717 15.3077-27.717 2.46177e-15-27.717-15.3077-15.3077-27.717 0-27.717 15.3077-27.717 27.717-15.3077 27.717 0Z" stroke="#2870C2" stroke-width="1.38585" fill="#4C8EDA" transform="matrix(1 0 0 1.00143 1092.86 318.352)"/><text fill="#FFFFFF" font-family="Arial,Arial_MSFontService,sans-serif" font-weight="400" font-size="10" transform="matrix(0.692926 0 0 0.693914 1065.84 322)">190<tspan font-size="10" x="18" y="0">.</tspan><tspan font-size="10" x="20.9999" y="0">93</tspan><tspan font-size="10" x="33" y="0">.</tspan><tspan font-size="10" x="36" y="0">240</tspan><tspan font-size="10" x="53.9999" y="0">.</tspan><tspan font-size="10" x="57" y="0">0</tspan><tspan font-size="10" x="62.9999" y="0">/</tspan><tspan font-size="10" x="66" y="0">20</tspan></text><path d="M27.717 0C27.717 15.3077 15.3077 27.717-4.92354e-15 27.717-15.3077 27.717-27.717 15.3077-27.717 2.46177e-15-27.717-15.3077-15.3077-27.717 0-27.717 15.3077-27.717 27.717-15.3077 27.717 0Z" stroke="#2870C2" stroke-width="1.38585" fill="#4C8EDA" transform="matrix(1 0 0 1.00143 338.489 578.119)"/><text fill="#FFFFFF" font-family="Arial,Arial_MSFontService,sans-serif" font-weight="400" font-size="10" transform="matrix(0.692926 0 0 0.693914 311.465 582)">103<tspan font-size="10" x="18" y="0">.</tspan><tspan font-size="10" x="21" y="0">21</tspan><tspan font-size="10" x="33" y="0">.</tspan><tspan font-size="10" x="36" y="0">244</tspan><tspan font-size="10" x="54" y="0">.</tspan><tspan font-size="10" x="57" y="0">0</tspan><tspan font-size="10" x="63" y="0">/</tspan><tspan font-size="10" x="66" y="0">22</tspan></text><path d="M22.5201 0C22.5201 12.4375 12.4375 22.5201 0 22.5201-12.4375 22.5201-22.5201 12.4375-22.5201 0-22.5201-12.4375-12.4375-22.5201-2.46177e-15-22.5201 12.4375-22.5201 22.5201-12.4375 22.5201 0Z" stroke="#F36924" stroke-width="1.38585" fill="#F79767" transform="matrix(1 0 0 1.00143 353.181 292.603)"/><text fill="#FFFFFF" font-family="Arial,Arial_MSFontService,sans-serif" font-weight="400" font-size="10" transform="matrix(0.692926 0 0 0.693914 335.858 296)">AS<tspan font-size="10" x="14" y="0">395747</tspan></text><path d="M27.717 0C27.717 15.3077 15.3077 27.717-4.92354e-15 27.717-15.3077 27.717-27.717 15.3077-27.717 2.46177e-15-27.717-15.3077-15.3077-27.717 0-27.717 15.3077-27.717 27.717-15.3077 27.717 0Z" stroke="#2870C2" stroke-width="1.38585" fill="#4C8EDA" transform="matrix(1 0 0 1.00143 347.001 401.282)"/><text fill="#FFFFFF" font-family="Arial,Arial_MSFontService,sans-serif" font-weight="400" font-size="10" transform="matrix(0.692926 0 0 0.693914 324.135 405)">103<tspan font-size="10" x="18" y="0">.</tspan><tspan font-size="10" x="21" y="0">31</tspan><tspan font-size="10" x="33" y="0">.</tspan><tspan font-size="10" x="36" y="0">4</tspan><tspan font-size="10" x="42" y="0">.</tspan><tspan font-size="10" x="45" y="0">0</tspan><tspan font-size="10" x="51" y="0">/</tspan><tspan font-size="10" x="54" y="0">22</tspan></text><path d="M27.717 0C27.717 15.3077 15.3077 27.717-4.92354e-15 27.717-15.3077 27.717-27.717 15.3077-27.717 2.46177e-15-27.717-15.3077-15.3077-27.717 0-27.717 15.3077-27.717 27.717-15.3077 27.717 0Z" stroke="#2870C2" stroke-width="1.38585" fill="#4C8EDA" transform="matrix(1 0 0 1.00143 1044.74 246.362)"/><text fill="#FFFFFF" font-family="Arial,Arial_MSFontService,sans-serif" font-weight="400" font-size="10" transform="matrix(0.692926 0 0 0.693914 1016.33 250)">197<tspan font-size="10" x="18" y="0">.</tspan><tspan font-size="10" x="21.0001" y="0">234</tspan><tspan font-size="10" x="39.0001" y="0">.</tspan><tspan font-size="10" x="42" y="0">240</tspan><tspan font-size="10" x="60" y="0">.</tspan><tspan font-size="10" x="63.0001" y="0">0</tspan><tspan font-size="10" x="69" y="0">/</tspan><tspan font-size="10" x="72.0001" y="0">…</tspan></text><path d="M17.3232 0C17.3232 9.56731 9.56731 17.3232-2.46177e-15 17.3232-9.56731 17.3232-17.3232 9.56731-17.3232 2.46177e-15-17.3232-9.56731-9.56731-17.3232-3.69265e-15-17.3232 9.56731-17.3232 17.3232-9.56731 17.3232 0Z" stroke="#C0A378" stroke-width="1.38585" fill="#D9C8AE" transform="matrix(1 0 0 1.00143 852.32 185.195)"/><text fill="#2A2C34" font-family="Arial,Arial_MSFontService,sans-serif" font-weight="400" font-size="10" transform="matrix(0.692926 0 0 0.693914 847.469 189)">SC</text><path d="M27.717 0C27.717 15.3077 15.3077 27.717-4.92354e-15 27.717-15.3077 27.717-27.717 15.3077-27.717 2.46177e-15-27.717-15.3077-15.3077-27.717 0-27.717 15.3077-27.717 27.717-15.3077 27.717 0Z" stroke="#2870C2" stroke-width="1.38585" fill="#4C8EDA" transform="matrix(1 0 0 1.00143 836.895 469.44)"/><text fill="#FFFFFF" font-family="Arial,Arial_MSFontService,sans-serif" font-weight="400" font-size="10" transform="matrix(0.692926 0 0 0.693914 814.029 473)">172<tspan font-size="10" x="18" y="0">.</tspan><tspan font-size="10" x="21" y="0">64</tspan><tspan font-size="10" x="33" y="0">.</tspan><tspan font-size="10" x="36" y="0">0</tspan><tspan font-size="10" x="42" y="0">.</tspan><tspan font-size="10" x="44.9999" y="0">0</tspan><tspan font-size="10" x="51" y="0">/</tspan><tspan font-size="10" x="54" y="0">16</tspan></text><path d="M27.717 0C27.717 15.3077 15.3077 27.717-4.92354e-15 27.717-15.3077 27.717-27.717 15.3077-27.717 2.46177e-15-27.717-15.3077-15.3077-27.717 0-27.717 15.3077-27.717 27.717-15.3077 27.717 0Z" stroke="#2870C2" stroke-width="1.38585" fill="#4C8EDA" transform="matrix(1 0 0 1.00143 773.219 490.82)"/><text fill="#FFFFFF" font-family="Arial,Arial_MSFontService,sans-serif" font-weight="400" font-size="10" transform="matrix(0.692926 0 0 0.693914 750.352 494)">104<tspan font-size="10" x="18" y="0">.</tspan><tspan font-size="10" x="21" y="0">24</tspan><tspan font-size="10" x="33" y="0">.</tspan><tspan font-size="10" x="36" y="0">0</tspan><tspan font-size="10" x="42" y="0">.</tspan><tspan font-size="10" x="45" y="0">0</tspan><tspan font-size="10" x="51" y="0">/</tspan><tspan font-size="10" x="54" y="0">20</tspan></text><path d="M27.717 0C27.717 15.3077 15.3077 27.717-4.92354e-15 27.717-15.3077 27.717-27.717 15.3077-27.717 2.46177e-15-27.717-15.3077-15.3077-27.717 0-27.717 15.3077-27.717 27.717-15.3077 27.717 0Z" stroke="#2870C2" stroke-width="1.38585" fill="#4C8EDA" transform="matrix(1 0 0 1.00143 649.171 529.451)"/><text fill="#FFFFFF" font-family="Arial,Arial_MSFontService,sans-serif" font-weight="400" font-size="10" transform="matrix(0.692926 0 0 0.693914 626.305 533)">104<tspan font-size="10" x="18" y="0">.</tspan><tspan font-size="10" x="21" y="0">16</tspan><tspan font-size="10" x="33" y="0">.</tspan><tspan font-size="10" x="36" y="0">0</tspan><tspan font-size="10" x="42" y="0">.</tspan><tspan font-size="10" x="45" y="0">0</tspan><tspan font-size="10" x="51" y="0">/</tspan><tspan font-size="10" x="54" y="0">20</tspan></text><path d="M27.717 0C27.717 15.3077 15.3077 27.717-4.92354e-15 27.717-15.3077 27.717-27.717 15.3077-27.717 2.46177e-15-27.717-15.3077-15.3077-27.717 0-27.717 15.3077-27.717 27.717-15.3077 27.717 0Z" stroke="#2870C2" stroke-width="1.38585" fill="#4C8EDA" transform="matrix(1 0 0 1.00143 709.743 520.057)"/><text fill="#FFFFFF" font-family="Arial,Arial_MSFontService,sans-serif" font-weight="400" font-size="10" transform="matrix(0.692926 0 0 0.693914 684.797 524)">162<tspan font-size="10" x="18" y="0">.</tspan><tspan font-size="10" x="21" y="0">158</tspan><tspan font-size="10" x="39" y="0">.</tspan><tspan font-size="10" x="42" y="0">0</tspan><tspan font-size="10" x="48" y="0">.</tspan><tspan font-size="10" x="51" y="0">0</tspan><tspan font-size="10" x="57" y="0">/</tspan><tspan font-size="10" x="60" y="0">22</tspan></text><path d="M27.717 0C27.717 15.3077 15.3077 27.717-4.92354e-15 27.717-15.3077 27.717-27.717 15.3077-27.717 2.46177e-15-27.717-15.3077-15.3077-27.717 0-27.717 15.3077-27.717 27.717-15.3077 27.717 0Z" stroke="#2870C2" stroke-width="1.38585" fill="#4C8EDA" transform="matrix(1 0 0 1.00143 900.903 454.25)"/><text fill="#FFFFFF" font-family="Arial,Arial_MSFontService,sans-serif" font-weight="400" font-size="10" transform="matrix(0.692926 0 0 0.693914 873.879 458)">198<tspan font-size="10" x="18" y="0">.</tspan><tspan font-size="10" x="21" y="0">41</tspan><tspan font-size="10" x="33" y="0">.</tspan><tspan font-size="10" x="36" y="0">128</tspan><tspan font-size="10" x="54" y="0">.</tspan><tspan font-size="10" x="57" y="0">0</tspan><tspan font-size="10" x="63" y="0">/</tspan><tspan font-size="10" x="66" y="0">24</tspan></text><path d="M27.717 0C27.717 15.3077 15.3077 27.717-4.92354e-15 27.717-15.3077 27.717-27.717 15.3077-27.717 2.46177e-15-27.717-15.3077-15.3077-27.717 0-27.717 15.3077-27.717 27.717-15.3077 27.717 0Z" stroke="#2870C2" stroke-width="1.38585" fill="#4C8EDA" transform="matrix(1 0 0 1.00143 975.359 435.493)"/><text fill="#FFFFFF" font-family="Arial,Arial_MSFontService,sans-serif" font-weight="400" font-size="10" transform="matrix(0.692926 0 0 0.693914 948.681 439)">188<tspan font-size="10" x="18.0001" y="0">.</tspan><tspan font-size="10" x="21" y="0">114</tspan><tspan font-size="10" x="38.0001" y="0">.</tspan><tspan font-size="10" x="41.0001" y="0">96</tspan><tspan font-size="10" x="53" y="0">.</tspan><tspan font-size="10" x="56" y="0">0</tspan><tspan font-size="10" x="62.0001" y="0">/</tspan><tspan font-size="10" x="65" y="0">24</tspan></text><path d="M27.717 0C27.717 15.3077 15.3077 27.717-4.92354e-15 27.717-15.3077 27.717-27.717 15.3077-27.717 2.46177e-15-27.717-15.3077-15.3077-27.717 0-27.717 15.3077-27.717 27.717-15.3077 27.717 0Z" stroke="#2870C2" stroke-width="1.38585" fill="#4C8EDA" transform="matrix(1 0 0 1.00143 527.865 512.621)"/><text fill="#FFFFFF" font-family="Arial,Arial_MSFontService,sans-serif" font-weight="400" font-size="10" transform="matrix(0.692926 0 0 0.693914 499.456 516)">108<tspan font-size="10" x="18" y="0">.</tspan><tspan font-size="10" x="21" y="0">162</tspan><tspan font-size="10" x="39" y="0">.</tspan><tspan font-size="10" x="42" y="0">192</tspan><tspan font-size="10" x="60" y="0">.</tspan><tspan font-size="10" x="63" y="0">0</tspan><tspan font-size="10" x="69" y="0">/</tspan><tspan font-size="10" x="72" y="0">…</tspan></text><path d="M27.717 0C27.717 15.3077 15.3077 27.717-4.92354e-15 27.717-15.3077 27.717-27.717 15.3077-27.717 2.46177e-15-27.717-15.3077-15.3077-27.717 0-27.717 15.3077-27.717 27.717-15.3077 27.717 0Z" stroke="#2870C2" stroke-width="1.38585" fill="#4C8EDA" transform="matrix(1 0 0 1.00143 585.213 528.953)"/><text fill="#FFFFFF" font-family="Arial,Arial_MSFontService,sans-serif" font-weight="400" font-size="10" transform="matrix(0.692926 0 0 0.693914 558.189 532)">103<tspan font-size="10" x="18" y="0">.</tspan><tspan font-size="10" x="21" y="0">22</tspan><tspan font-size="10" x="33" y="0">.</tspan><tspan font-size="10" x="36" y="0">200</tspan><tspan font-size="10" x="54" y="0">.</tspan><tspan font-size="10" x="57" y="0">0</tspan><tspan font-size="10" x="63" y="0">/</tspan><tspan font-size="10" x="65.9999" y="0">23</tspan></text><path d="M27.717 0C27.717 15.3077 15.3077 27.717-4.92354e-15 27.717-15.3077 27.717-27.717 15.3077-27.717 2.46177e-15-27.717-15.3077-15.3077-27.717 0-27.717 15.3077-27.717 27.717-15.3077 27.717 0Z" stroke="#2870C2" stroke-width="1.38585" fill="#4C8EDA" transform="matrix(1 0 0 1.00143 435.038 496.552)"/><text fill="#FFFFFF" font-family="Arial,Arial_MSFontService,sans-serif" font-weight="400" font-size="10" transform="matrix(0.692926 0 0 0.693914 408.014 500)">103<tspan font-size="10" x="18" y="0">.</tspan><tspan font-size="10" x="21" y="0">21</tspan><tspan font-size="10" x="33" y="0">.</tspan><tspan font-size="10" x="36" y="0">244</tspan><tspan font-size="10" x="54" y="0">.</tspan><tspan font-size="10" x="57" y="0">0</tspan><tspan font-size="10" x="63" y="0">/</tspan><tspan font-size="10" x="66" y="0">24</tspan></text><path d="M27.717 0C27.717 15.3077 15.3077 27.717-4.92354e-15 27.717-15.3077 27.717-27.717 15.3077-27.717 2.46177e-15-27.717-15.3077-15.3077-27.717 0-27.717 15.3077-27.717 27.717-15.3077 27.717 0Z" stroke="#2870C2" stroke-width="1.38585" fill="#4C8EDA" transform="matrix(1 0 0 1.00143 1057.38 415.601)"/><text fill="#FFFFFF" font-family="Arial,Arial_MSFontService,sans-serif" font-weight="400" font-size="10" transform="matrix(0.692926 0 0 0.693914 1030.35 419)">141<tspan font-size="10" x="18" y="0">.</tspan><tspan font-size="10" x="20.9999" y="0">101</tspan><tspan font-size="10" x="38.9999" y="0">.</tspan><tspan font-size="10" x="42" y="0">64</tspan><tspan font-size="10" x="53.9999" y="0">.</tspan><tspan font-size="10" x="56.9999" y="0">0</tspan><tspan font-size="10" x="62.9999" y="0">/</tspan><tspan font-size="10" x="66" y="0">24</tspan></text><path d="M17.3232 0C17.3232 9.56731 9.56731 17.3232-2.46177e-15 17.3232-9.56731 17.3232-17.3232 9.56731-17.3232 2.46177e-15-17.3232-9.56731-9.56731-17.3232-3.69265e-15-17.3232 9.56731-17.3232 17.3232-9.56731 17.3232 0Z" stroke="#C0A378" stroke-width="1.38585" fill="#D9C8AE" transform="matrix(1 0 0 1.00143 696.242 688.805)"/><text fill="#2A2C34" font-family="Arial,Arial_MSFontService,sans-serif" font-weight="400" font-size="10" transform="matrix(0.692926 0 0 0.693914 691.392 692)">US</text><path d="M27.717 0C27.717 15.3077 15.3077 27.717-4.92354e-15 27.717-15.3077 27.717-27.717 15.3077-27.717 2.46177e-15-27.717-15.3077-15.3077-27.717 0-27.717 15.3077-27.717 27.717-15.3077 27.717 0Z" stroke="#2870C2" stroke-width="1.38585" fill="#4C8EDA" transform="matrix(1 0 0 1.00143 1193.51 405.95)"/><text fill="#FFFFFF" font-family="Arial,Arial_MSFontService,sans-serif" font-weight="400" font-size="10" transform="matrix(0.692926 0 0 0.693914 1166.49 409)">141<tspan font-size="10" x="18.0002" y="0">.</tspan><tspan font-size="10" x="21.0001" y="0">101</tspan><tspan font-size="10" x="39.0001" y="0">.</tspan><tspan font-size="10" x="42" y="0">64</tspan><tspan font-size="10" x="54.0001" y="0">.</tspan><tspan font-size="10" x="57" y="0">0</tspan><tspan font-size="10" x="63.0001" y="0">/</tspan><tspan font-size="10" x="66" y="0">18</tspan></text></g></svg>